<svg width="40" height="38" viewBox="0 0 40 38" fill="none" xmlns="http://www.w3.org/2000/svg">
<g clip-path="url(#clip0)">
<g filter="url(#filter0_d)">
<path d="M20 0C8.9722 0 0 8.45623 0 18.8499C0 29.2435 8.9722 37.6997 20 37.6997C31.0278 37.6997 40 29.2435 40 18.8499C40 8.45623 31.0278 0 20 0ZM20 35.3435C10.3503 35.3435 2.50001 27.9446 2.50001 18.8499C2.50001 9.75511 10.3503 2.35624 20 2.35624C29.6497 2.35624 37.5 9.75511 37.5 18.8499C37.5 27.9446 29.6497 35.3435 20 35.3435Z" fill="white"/>
</g>
<g filter="url(#filter1_d)">
<path d="M21.25 7.06885H18.75V19.3378L26.6162 26.7516L28.3838 25.0857L21.25 18.3622V7.06885Z" fill="white"/>
</g>
</g>
<defs>
<filter id="filter0_d" x="-20" y="-40" width="120" height="117.7" filterUnits="userSpaceOnUse" color-interpolation-filters="sRGB">
<feFlood flood-opacity="0" result="BackgroundImageFix"/>
<feColorMatrix in="SourceAlpha" type="matrix" values="0 0 0 0 0 0 0 0 0 0 0 0 0 0 0 0 0 0 127 0"/>
<feOffset dx="20"/>
<feGaussianBlur stdDeviation="20"/>
<feColorMatrix type="matrix" values="0 0 0 0 0 0 0 0 0 0 0 0 0 0 0 0 0 0 0.4 0"/>
<feBlend mode="normal" in2="BackgroundImageFix" result="effect1_dropShadow"/>
<feBlend mode="normal" in="SourceGraphic" in2="effect1_dropShadow" result="shape"/>
</filter>
<filter id="filter1_d" x="-1.25" y="-32.9312" width="89.6338" height="99.6828" filterUnits="userSpaceOnUse" color-interpolation-filters="sRGB">
<feFlood flood-opacity="0" result="BackgroundImageFix"/>
<feColorMatrix in="SourceAlpha" type="matrix" values="0 0 0 0 0 0 0 0 0 0 0 0 0 0 0 0 0 0 127 0"/>
<feOffset dx="20"/>
<feGaussianBlur stdDeviation="20"/>
<feColorMatrix type="matrix" values="0 0 0 0 0 0 0 0 0 0 0 0 0 0 0 0 0 0 0.4 0"/>
<feBlend mode="normal" in2="BackgroundImageFix" result="effect1_dropShadow"/>
<feBlend mode="normal" in="SourceGraphic" in2="effect1_dropShadow" result="shape"/>
</filter>
<clipPath id="clip0">
<rect width="40" height="37.6997" fill="white"/>
</clipPath>
</defs>
</svg>
