<svg width="102" height="101" viewBox="0 0 102 101" fill="none" xmlns="http://www.w3.org/2000/svg">
<g clip-path="url(#clip0)">
<path d="M102 77.2429H89.9891V3.01291L12.0095 2.97687V23.7608H15.0091V5.94843L38.9994 5.95952V23.4721L43.9983 26.8668L47.4964 24.4906L50.9955 26.8668L54.4948 24.4906L57.9947 26.8668L62.9944 23.4723V14.8502H59.9948V21.9074L57.9947 23.2651L54.4948 20.889L50.9955 23.2651L47.496 20.889L43.9981 23.2651L41.999 21.9076V5.9609L59.9948 5.96922V11.8801H62.9944V5.97061L86.9895 5.98169V77.2429C70.4486 77.2441 31.1001 77.2439 15.0091 77.2309V26.7309H12.0095V77.2429H0V86.144H13.5257C9.80124 90.815 13.4535 98.151 19.5203 98.0213C25.5854 98.151 29.2401 90.8141 25.5144 86.144H59.9953V83.1738H2.99958V80.2131C24.0792 80.2074 68.672 80.2228 89.9891 80.2359V80.2131H99.0004V83.1738H68.9942V86.144H76.479C72.7543 90.815 76.4068 98.151 82.4733 98.0213C88.5385 98.151 92.1934 90.8139 88.4675 86.144H102V77.2429H102ZM24.0179 90.5976C23.8621 96.4705 15.1773 96.4691 15.0223 90.5974C15.1781 84.7248 23.8631 84.726 24.0179 90.5976ZM86.9709 90.5976C86.8151 96.4705 78.1303 96.4691 77.9753 90.5974C78.1311 84.7248 86.8159 84.726 86.9709 90.5976Z" fill="white"/>
<path d="M62.995 83.1737H65.9946V86.1439H62.995V83.1737Z" fill="white"/>
<path d="M21.0131 56.4361H38.9862V44.549H21.0131V56.4361ZM24.0126 47.519H35.9866V53.4657H24.0126V47.519Z" fill="white"/>
<path d="M21.0009 59.4219H29.9996V62.3921H21.0009V59.4219Z" fill="white"/>
<path d="M21.0009 65.3543H38.9983V68.3245H21.0009V65.3543Z" fill="white"/>
<path d="M18.0055 8.90991H21.0051V11.8801H18.0055V8.90991Z" fill="white"/>
<path d="M18.0055 14.8502H21.0051V17.8203H18.0055V14.8502Z" fill="white"/>
<path d="M45.0335 8.90991H48.0331V11.8801H45.0335V8.90991Z" fill="white"/>
<path d="M18.0055 89.1046H21.0051V92.0747H18.0055V89.1046Z" fill="white"/>
<path d="M80.9733 89.1046H83.9729V92.0747H80.9733V89.1046Z" fill="white"/>
</g>
<defs>
<clipPath id="clip0">
<rect width="102" height="101" fill="white"/>
</clipPath>
</defs>
</svg>
