<svg width="102" height="102" viewBox="0 0 102 102" fill="none" xmlns="http://www.w3.org/2000/svg">
<g clip-path="url(#clip0)">
<path d="M18.1877 31.7099C17.8172 31.3394 17.3032 31.1262 16.7792 31.1262C16.2533 31.1262 15.7413 31.3394 15.3708 31.7099C15.0002 32.0805 14.787 32.5924 14.787 33.1184C14.787 33.6423 15.0002 34.1563 15.3708 34.5269C15.7413 34.8972 16.2553 35.1106 16.7792 35.1106C17.3032 35.1106 17.8172 34.8974 18.1877 34.5269C18.5583 34.1563 18.7714 33.6423 18.7714 33.1184C18.7714 32.5944 18.5583 32.0805 18.1877 31.7099Z" fill="white"/>
<path d="M83.0911 18.9203C82.3132 18.1423 81.0517 18.1423 80.2736 18.9203L75.1481 24.0458C68.69 28.2852 61.6655 31.4998 54.2649 33.5989L39.7303 37.7222C34.3109 39.2596 29.341 42.1775 25.3574 46.1607C17.6961 53.8225 14.6265 65.0973 17.347 75.585L18.9219 81.657C19.1033 82.357 19.65 82.9037 20.3501 83.0852L26.4213 84.6598C28.9486 85.3154 31.5207 85.6348 34.0777 85.6348C42.1323 85.6348 50.0303 82.4648 55.8459 76.6494C59.8289 72.6664 62.7469 67.6965 64.2847 62.2767L68.4075 47.7415C70.5037 40.3519 73.7199 33.329 77.9648 26.8633L83.0905 21.7376C83.8691 20.9599 83.8691 19.6984 83.0911 18.9203ZM64.5749 46.6542L60.4523 61.1894C59.0996 65.9565 56.5328 70.3282 53.0292 73.8318C46.3617 80.4995 36.55 83.1708 27.4223 80.8031L22.4851 79.5227L21.2045 74.5849C18.8368 65.4579 21.5079 55.6459 28.1756 48.9785C31.6793 45.4748 36.0509 42.9079 40.8182 41.5557L55.3529 37.4325C60.6889 35.9188 65.84 33.8551 70.7398 31.2713C68.1519 36.174 66.0872 41.3231 64.5749 46.6542Z" fill="white"/>
<path d="M60.0381 41.8581C59.6656 41.4875 59.1536 41.2744 58.6296 41.2744C58.1037 41.2744 57.5897 41.4875 57.2192 41.8581C56.8486 42.2286 56.6354 42.7426 56.6354 43.2666C56.6354 43.7905 56.8486 44.3045 57.2192 44.6751C57.5897 45.0454 58.1037 45.2588 58.6296 45.2588C59.1536 45.2588 59.6656 45.0456 60.0381 44.6751C60.4087 44.3045 60.6198 43.7905 60.6198 43.2666C60.62 42.7426 60.4089 42.2286 60.0381 41.8581Z" fill="white"/>
<path d="M49.7843 43.2246C49.4137 42.854 48.8997 42.6409 48.3758 42.6409C47.8519 42.6409 47.3379 42.854 46.9673 43.2246C46.5968 43.5951 46.3836 44.1091 46.3836 44.6331C46.3836 45.157 46.5968 45.671 46.9673 46.0415C47.3379 46.4123 47.8519 46.6253 48.3758 46.6253C48.8997 46.6253 49.4137 46.4121 49.7843 46.0415C50.1548 45.671 50.368 45.157 50.368 44.6331C50.368 44.1091 50.1548 43.5951 49.7843 43.2246Z" fill="white"/>
<path d="M39.7793 53.2316C39.4067 52.861 38.8947 52.6479 38.3688 52.6479C37.8448 52.6479 37.3328 52.861 36.9603 53.2316C36.5898 53.6021 36.3766 54.1141 36.3766 54.6401C36.3766 55.164 36.5898 55.678 36.9603 56.0485C37.3328 56.4193 37.8448 56.6322 38.3688 56.6322C38.8947 56.6322 39.4067 56.4191 39.7793 56.0485C40.1498 55.678 40.361 55.164 40.361 54.6401C40.361 54.1141 40.1498 53.6021 39.7793 53.2316Z" fill="white"/>
<path d="M58.6794 52.1199C58.3088 51.7494 57.7948 51.5362 57.2709 51.5362C56.7469 51.5362 56.233 51.7494 55.8624 52.1199C55.4899 52.4905 55.2787 53.0044 55.2787 53.5284C55.2787 54.0523 55.4899 54.5663 55.8624 54.9369C56.233 55.3076 56.7449 55.5206 57.2709 55.5206C57.7948 55.5206 58.3088 55.3074 58.6794 54.9369C59.0499 54.5663 59.2631 54.0523 59.2631 53.5284C59.2631 53.0044 59.0499 52.4905 58.6794 52.1199Z" fill="white"/>
<path d="M48.6726 62.1249C48.3021 61.7543 47.7881 61.5412 47.2642 61.5412C46.7402 61.5412 46.2262 61.7543 45.8557 62.1249C45.4851 62.4954 45.272 63.0094 45.272 63.5334C45.272 64.0593 45.4851 64.5713 45.8557 64.9438C46.2262 65.3142 46.7402 65.5255 47.2642 65.5255C47.7881 65.5255 48.3021 65.3144 48.6726 64.9438C49.0432 64.5713 49.2564 64.0593 49.2564 63.5334C49.2564 63.0094 49.0432 62.4954 48.6726 62.1249Z" fill="white"/>
<path d="M28.9657 64.0432C28.5951 63.6726 28.0811 63.4594 27.5572 63.4594C27.0333 63.4594 26.5193 63.6726 26.1487 64.0432C25.7782 64.4137 25.565 64.9277 25.565 65.4516C25.565 65.9756 25.7782 66.4896 26.1487 66.8601C26.5193 67.2327 27.0333 67.4438 27.5572 67.4438C28.0811 67.4438 28.5951 67.2327 28.9657 66.8601C29.3362 66.4896 29.5494 65.9756 29.5494 65.4516C29.5494 64.9277 29.3362 64.4137 28.9657 64.0432Z" fill="white"/>
<path d="M37.8608 72.9385C37.4903 72.5679 36.9763 72.3548 36.4523 72.3548C35.9264 72.3548 35.4144 72.5679 35.0419 72.9385C34.6713 73.309 34.4601 73.823 34.4601 74.347C34.4601 74.8709 34.6713 75.3849 35.0419 75.7555C35.4144 76.1262 35.9264 76.3392 36.4523 76.3392C36.9763 76.3392 37.4903 76.126 37.8608 75.7555C38.2314 75.3849 38.4445 74.8709 38.4445 74.347C38.4445 73.823 38.2314 73.309 37.8608 72.9385Z" fill="white"/>
<path d="M57.5498 60.6726C57.1773 60.3021 56.6653 60.0889 56.1414 60.0889C55.6154 60.0889 55.1034 60.3021 54.7329 60.6726C54.3603 61.0432 54.1492 61.5571 54.1492 62.0811C54.1492 62.607 54.3603 63.119 54.7329 63.4896C55.1014 63.8601 55.6154 64.0733 56.1414 64.0733C56.6653 64.0733 57.1793 63.8601 57.5498 63.4896C57.9204 63.119 58.1335 62.607 58.1335 62.0811C58.1335 61.5571 57.9204 61.0432 57.5498 60.6726Z" fill="white"/>
<path d="M41.5466 44.6689C41.1761 44.2983 40.6621 44.0872 40.1381 44.0872C39.6122 44.0872 39.1002 44.2983 38.7296 44.6689C38.3591 45.0394 38.1459 45.5534 38.1459 46.0793C38.1459 46.6033 38.3591 47.1153 38.7296 47.4878C39.1002 47.8584 39.6122 48.0695 40.1381 48.0695C40.6621 48.0695 41.1761 47.8584 41.5466 47.4878C41.9171 47.1153 42.1303 46.6033 42.1303 46.0793C42.1303 45.5534 41.9171 45.0394 41.5466 44.6689Z" fill="white"/>
<path d="M49.4416 52.5664C49.0711 52.1938 48.5571 51.9827 48.0331 51.9827C47.5092 51.9827 46.9952 52.1938 46.6247 52.5664C46.2541 52.9369 46.041 53.4489 46.041 53.9749C46.041 54.4988 46.2541 55.0128 46.6247 55.3833C46.9952 55.7537 47.5092 55.967 48.0331 55.967C48.5571 55.967 49.0711 55.7539 49.4416 55.3833C49.8122 55.0128 50.0253 54.4988 50.0253 53.9749C50.0253 53.4489 49.8122 52.9369 49.4416 52.5664Z" fill="white"/>
<path d="M46.8438 71.3786C46.4732 71.0081 45.9593 70.7949 45.4353 70.7949C44.9114 70.7949 44.3974 71.0081 44.0268 71.3786C43.6563 71.7491 43.4431 72.2631 43.4431 72.7871C43.4431 73.311 43.6563 73.825 44.0268 74.1956C44.3974 74.5661 44.9114 74.7793 45.4353 74.7793C45.9593 74.7793 46.4732 74.5661 46.8438 74.1956C47.2143 73.825 47.4275 73.311 47.4275 72.7871C47.4275 72.2631 47.2143 71.7491 46.8438 71.3786Z" fill="white"/>
<path d="M30.8403 55.3753C30.4698 55.0048 29.9558 54.7916 29.4318 54.7916C28.9079 54.7916 28.3939 55.0048 28.0233 55.3753C27.6528 55.7459 27.4396 56.2599 27.4396 56.7838C27.4396 57.3078 27.6528 57.8217 28.0233 58.1923C28.3939 58.5628 28.9079 58.776 29.4318 58.776C29.9558 58.776 30.4698 58.5628 30.8403 58.1923C31.2109 57.8217 31.424 57.3078 31.424 56.7838C31.424 56.2599 31.2109 55.7459 30.8403 55.3753Z" fill="white"/>
<path d="M38.7373 63.2704C38.3648 62.8998 37.8528 62.6867 37.3268 62.6867C36.8029 62.6867 36.2889 62.8998 35.9184 63.2704C35.5478 63.6409 35.3347 64.1549 35.3347 64.6789C35.3347 65.2048 35.5478 65.7168 35.9184 66.0874C36.2889 66.4579 36.8029 66.6711 37.3268 66.6711C37.8528 66.6711 38.3648 66.4579 38.7373 66.0874C39.1079 65.7168 39.319 65.2028 39.319 64.6789C39.319 64.1549 39.1079 63.6409 38.7373 63.2704Z" fill="white"/>
<path d="M29.2685 72.7393C28.8979 72.3687 28.3839 72.1555 27.86 72.1555C27.336 72.1555 26.8221 72.3687 26.4515 72.7393C26.081 73.1098 25.8678 73.6218 25.8678 74.1477C25.8678 74.6717 26.081 75.1857 26.4515 75.5562C26.8221 75.9268 27.336 76.1399 27.86 76.1399C28.3839 76.1399 28.8979 75.9268 29.2685 75.5562C29.639 75.1857 29.8522 74.6717 29.8522 74.1477C29.8522 73.6238 29.639 73.1098 29.2685 72.7393Z" fill="white"/>
<path d="M87.7678 14.2442C87.3972 13.8737 86.8833 13.6605 86.3593 13.6605C85.8334 13.6605 85.3194 13.8737 84.9488 14.2442C84.5783 14.6148 84.3671 15.1287 84.3671 15.6527C84.3671 16.1766 84.5783 16.6906 84.9488 17.0612C85.3194 17.4317 85.8334 17.6449 86.3593 17.6449C86.8833 17.6449 87.3972 17.4315 87.7678 17.0612C88.1383 16.6906 88.3515 16.1766 88.3515 15.6527C88.3515 15.1287 88.1383 14.6148 87.7678 14.2442Z" fill="white"/>
<path d="M100.008 11.9579C101.108 11.9579 102 11.066 102 9.9657V1.99694C102 0.89665 101.108 0.00474548 100.008 0.00474548C95.5865 0.00474548 91.3629 1.83856 88.3292 4.99479C80.1199 -2.00159 67.7387 -1.62228 59.9825 6.13372C54.8227 11.2937 48.3634 14.9966 41.3031 16.8423C34.4169 18.6425 28.0028 21.673 22.2396 25.8494C21.3487 26.4951 21.1497 27.7406 21.7954 28.6315C22.4412 29.5226 23.6867 29.7215 24.5777 29.0758C29.9388 25.1908 35.9053 22.3719 42.3109 20.6972C50.0552 18.6728 57.1402 14.6113 62.7998 8.95108C69.4018 2.34936 80.1442 2.34916 86.7462 8.95108L93.0558 15.2607C99.6578 21.8627 99.6578 32.6052 93.0558 39.2071C87.3958 44.8669 83.3341 51.9521 81.3097 59.696C78.9262 68.8136 74.144 77.1555 67.4801 83.8192C52.9449 98.3547 30.7289 102.142 12.199 93.2433L9.87807 92.1287L8.76364 89.8078C1.39253 74.4581 2.67092 56.1216 12.1004 41.9545C12.71 41.0387 12.4615 39.802 11.5457 39.1923C10.6297 38.5827 9.39317 38.831 8.78356 39.747C3.78714 47.2537 0.797858 55.9855 0.138642 64.998C-0.527946 74.1121 1.21263 83.2877 5.17191 91.5326L6.58936 94.4842C6.78539 94.8924 7.1147 95.2215 7.5229 95.4178L10.4745 96.8352C17.7078 100.309 25.4568 101.996 33.1508 101.996C46.7866 101.995 60.2423 96.6926 70.298 86.6368C77.4616 79.4731 82.6028 70.5054 85.165 60.704C87.0105 53.6439 90.7136 47.1846 95.8736 42.0246C103.707 34.1913 104.015 21.6403 96.8004 13.4341C97.5964 12.5111 98.7706 11.9579 100.008 11.9579ZM94.0093 10.5793L91.1927 7.76274C93.0206 5.85621 95.4224 4.58818 98.0156 4.15468V8.22194C96.4874 8.60783 95.0901 9.42861 94.0093 10.5793Z" fill="white"/>
</g>
<defs>
<clipPath id="clip0">
<rect width="102" height="102" fill="white"/>
</clipPath>
</defs>
</svg>
