<svg width="102" height="97" viewBox="0 0 102 97" fill="none" xmlns="http://www.w3.org/2000/svg">
<g clip-path="url(#clip0)">
<path d="M71.897 76.2195C70.7969 76.2195 69.9048 75.3787 69.9048 74.3418V70.4405C69.9048 69.4037 70.7969 68.5629 71.897 68.5629C72.9971 68.5629 73.8892 69.4037 73.8892 70.4405V74.3418C73.8892 75.3787 72.9971 76.2195 71.897 76.2195Z" fill="white"/>
<path d="M78.2374 38.8174V7.31597C78.2374 3.9475 75.3272 1.20691 71.7502 1.20691H6.48158C2.9076 1.20691 0 3.94731 0 7.31597V29.6437C0 30.6805 0.891902 31.5213 1.99219 31.5213C3.09247 31.5213 3.98438 30.6805 3.98438 29.6437V7.31597C3.98438 6.01815 5.10458 4.96217 6.48158 4.96217H24.9599V29.3243C24.9599 30.0047 25.3506 30.632 25.9809 30.9636C26.6112 31.2952 27.383 31.2796 27.9976 30.9225L39.1158 24.4619L50.234 30.9225C50.5539 31.1084 50.9165 31.2017 51.2795 31.2017C51.6138 31.2017 51.9483 31.1225 52.2505 30.9634C52.881 30.6317 53.2717 30.0045 53.2717 29.3241V4.96217H71.75C73.1302 4.96217 74.2528 6.01815 74.2528 7.31597V38.2686C73.4753 38.2115 72.6895 38.182 71.8969 38.182C55.2979 38.182 41.7937 50.9099 41.7937 66.5547C41.7937 68.1336 41.9336 69.6823 42.1979 71.1917H6.48158C5.10458 71.1917 3.98438 70.1335 3.98438 68.8328V46.5053C3.98438 45.4685 3.09247 44.6277 1.99219 44.6277C0.891902 44.6277 0 45.4685 0 46.5053V68.833C0 72.2043 2.9076 74.9472 6.48158 74.9472H43.138C46.9435 86.5079 58.3964 94.9278 71.8969 94.9278C88.4956 94.9278 102 82.1997 102 66.5549C102 52.9597 91.8016 41.5692 78.2374 38.8174ZM49.2873 25.9609L40.1613 20.6579C39.5202 20.2857 38.7114 20.2857 38.0703 20.6579L28.9443 25.9609V4.96217H49.2873V25.9609ZM71.897 91.1725C57.4951 91.1725 45.7783 80.1292 45.7783 66.5549C45.7783 52.9807 57.4951 41.9374 71.897 41.9374C86.299 41.9374 98.0156 52.9807 98.0156 66.5549C98.0156 80.1292 86.299 91.1725 71.897 91.1725Z" fill="white"/>
<path d="M83.28 60.5717V56.4847C83.28 51.5225 78.9968 47.4856 73.7321 47.4856H70.0615C64.7967 47.4856 60.5135 51.5225 60.5135 56.4847V60.5714C58.3693 61.052 56.7696 62.8692 56.7696 65.0326V71.2865C56.7696 79.1481 63.5556 85.5442 71.8969 85.5442C80.235 85.5442 87.0182 79.1483 87.0182 71.2865V65.0326C87.0184 62.8696 85.421 61.0526 83.28 60.5717ZM70.0617 51.2409H73.7323C76.7998 51.2409 79.2959 53.5932 79.2959 56.4847V60.4459H64.4983V56.4847C64.4981 53.5933 66.9939 51.2409 70.0617 51.2409ZM83.034 71.2865C83.034 77.0776 78.038 81.789 71.8971 81.789C65.7528 81.789 60.7542 77.0776 60.7542 71.2865V65.0326C60.7542 64.582 61.1608 64.201 61.6419 64.201H82.1519C82.63 64.201 83.034 64.5818 83.034 65.0326V71.2865Z" fill="white"/>
<path d="M12.2247 56.324H13.8172C14.9175 56.324 15.8094 55.4832 15.8094 54.4464C15.8094 53.4095 14.9175 52.5687 13.8172 52.5687H12.2247C11.1244 52.5687 10.2325 53.4095 10.2325 54.4464C10.2325 55.4832 11.1244 56.324 12.2247 56.324Z" fill="white"/>
<path d="M33.8754 56.324C34.9757 56.324 35.8676 55.4832 35.8676 54.4464C35.8676 53.4095 34.9757 52.5687 33.8754 52.5687H21.7908C20.6905 52.5687 19.7986 53.4095 19.7986 54.4464C19.7986 55.4832 20.6905 56.324 21.7908 56.324H33.8754Z" fill="white"/>
<path d="M12.2247 65.239H33.8754C34.9757 65.239 35.8676 64.3982 35.8676 63.3614C35.8676 62.3246 34.9757 61.4838 33.8754 61.4838H12.2247C11.1244 61.4838 10.2325 62.3246 10.2325 63.3614C10.2325 64.3982 11.1244 65.239 12.2247 65.239Z" fill="white"/>
<path d="M1.99219 39.9575C3.09247 39.9575 3.98438 39.1114 3.98438 38.0746C3.98438 37.0378 3.09247 36.197 1.99219 36.197C0.891902 36.197 0 37.0378 0 38.0746V38.0853C0 39.1219 0.891902 39.9575 1.99219 39.9575Z" fill="white"/>
</g>
<defs>
<clipPath id="clip0">
<rect width="102" height="96.1348" fill="white"/>
</clipPath>
</defs>
</svg>
