<svg width="40" height="38" viewBox="0 0 40 38" fill="none" xmlns="http://www.w3.org/2000/svg">
<g clip-path="url(#clip0)">
<g filter="url(#filter0_d)">
<path d="M29.6242 21.2015C28.1228 22.6183 25.7775 24.831 23.8137 26.6949C21.4794 25.2547 19.3694 23.6656 17.6727 22.0664C15.5773 20.0915 12.9571 17.2797 11.5411 15.2879C13.3389 13.6056 15.6899 11.3926 17.4151 9.76806L7.05101 0L1.8798 4.7861L1.87217 4.79329C0.425031 6.15721 -0.187762 8.01901 0.0508858 10.3269C0.81413 17.7068 10.3893 28.3964 18.8537 33.7503C23.7542 36.8501 30.798 39.7194 34.9642 35.7925C37.9891 32.9418 39.1454 31.7804 39.1933 31.7323L39.9691 30.9517L29.6242 21.2015ZM33.3059 34.2295C30.1519 37.2018 23.897 34.2781 20.1604 31.9147C12.3058 26.9462 3.07396 16.7706 2.38518 10.1124C2.21794 8.49647 2.60216 7.23379 3.52684 6.35998L7.03605 3.11211L14.0969 9.7672C10.516 13.137 9.43718 14.1414 8.57933 14.9419L9.03435 15.6811C10.4162 17.9246 13.6211 21.3741 16.0143 23.6296C18.6394 26.1038 21.3341 27.8505 24.1518 29.5127L24.8119 28.8848C26.2603 27.5074 28.3651 25.5185 29.6252 24.3288L36.6958 30.9928C36.0409 31.6299 34.9468 32.6826 33.3059 34.2295Z" fill="white"/>
</g>
</g>
<defs>
<filter id="filter0_d" x="-19.9993" y="-40" width="119.968" height="117.7" filterUnits="userSpaceOnUse" color-interpolation-filters="sRGB">
<feFlood flood-opacity="0" result="BackgroundImageFix"/>
<feColorMatrix in="SourceAlpha" type="matrix" values="0 0 0 0 0 0 0 0 0 0 0 0 0 0 0 0 0 0 127 0"/>
<feOffset dx="20"/>
<feGaussianBlur stdDeviation="20"/>
<feColorMatrix type="matrix" values="0 0 0 0 0 0 0 0 0 0 0 0 0 0 0 0 0 0 0.4 0"/>
<feBlend mode="normal" in2="BackgroundImageFix" result="effect1_dropShadow"/>
<feBlend mode="normal" in="SourceGraphic" in2="effect1_dropShadow" result="shape"/>
</filter>
<clipPath id="clip0">
<rect width="40" height="37.6997" fill="white"/>
</clipPath>
</defs>
</svg>
